HIERARCHY
ROOT pelvis
{
	OFFSET 0.003123 -0.351407 0.012037
	CHANNELS 6 Xposition Yposition Zposition Zrotation Yrotation Xrotation 
	JOINT left_hip
	{
		OFFSET 0.058189 -0.092763 -0.026001
		CHANNELS 3 Zrotation Yrotation Xrotation
		JOINT left_knee
		{
			OFFSET 0.054695 -0.378753 -0.009396
			CHANNELS 3 Zrotation Yrotation Xrotation
			JOINT left_ankle
			{
				OFFSET -0.043453 -0.403059 -0.031876
				CHANNELS 3 Zrotation Yrotation Xrotation
				JOINT left_foot
				{
					OFFSET 0.047257 -0.057997 0.118216
					CHANNELS 3 Zrotation Yrotation Xrotation
					End Site
					{
						OFFSET 0.000000 0.000000 0.000000
					}
				}
			}
		}
	}
	JOINT right_hip
	{
		OFFSET -0.063267 -0.103908 -0.021250
		CHANNELS 3 Zrotation Yrotation Xrotation
		JOINT right_knee
		{
			OFFSET -0.044210 -0.362380 -0.016824
			CHANNELS 3 Zrotation Yrotation Xrotation
			JOINT right_ankle
			{
				OFFSET 0.015417 -0.410728 -0.020192
				CHANNELS 3 Zrotation Yrotation Xrotation
				JOINT right_foot
				{
					OFFSET -0.038812 -0.058328 0.119049
					CHANNELS 3 Zrotation Yrotation Xrotation
					End Site
					{
						OFFSET 0.000000 0.000000 0.000000
					}
				}
			}
		}
	}
	JOINT spine_1
	{
		OFFSET -0.002763 0.109891 -0.027618
		CHANNELS 3 Zrotation Yrotation Xrotation
		JOINT spine_2
		{
			OFFSET 0.009448 0.131853 -0.005940
			CHANNELS 3 Zrotation Yrotation Xrotation
			JOINT spine_3
			{
				OFFSET -0.011330 0.052235 0.028447
				CHANNELS 3 Zrotation Yrotation Xrotation
				JOINT neck
				{
					OFFSET -0.012164 0.165167 -0.031615
					CHANNELS 3 Zrotation Yrotation Xrotation
					JOINT head
					{
						OFFSET 0.024783 0.160452 0.020737
						CHANNELS 3 Zrotation Yrotation Xrotation
						End Site
						{
							OFFSET 0.000000 0.000000 0.000000
						}
					}
				}
				JOINT left_collar
				{
					OFFSET 0.046364 0.084944 -0.007220
					CHANNELS 3 Zrotation Yrotation Xrotation
					JOINT left_shoulder
					{
						OFFSET 0.119239 0.057728 -0.015461
						CHANNELS 3 Zrotation Yrotation Xrotation
						JOINT left_elbow
						{
							OFFSET 0.254123 -0.072151 -0.042459
							CHANNELS 3 Zrotation Yrotation Xrotation
							JOINT left_wrist
							{
								OFFSET 0.251987 0.023221 -0.002472
								CHANNELS 3 Zrotation Yrotation Xrotation
								JOINT left_index_1
								{
									OFFSET 0.101902 -0.008688 0.019351
									CHANNELS 3 Zrotation Yrotation Xrotation
									JOINT left_index_2
									{
										OFFSET 0.030149 -0.011154 0.001151
										CHANNELS 3 Zrotation Yrotation Xrotation
										JOINT left_index_3
										{
											OFFSET 0.006504 -0.021577 -0.002433
											CHANNELS 3 Zrotation Yrotation Xrotation
											End Site
											{
												OFFSET 0.000000 0.000000 0.000000
											}
										}
									}
								}
								JOINT left_middle_1
								{
									OFFSET 0.109398 -0.006328 -0.003981
									CHANNELS 3 Zrotation Yrotation Xrotation
									JOINT left_middle_2
									{
										OFFSET 0.026472 -0.015218 -0.004641
										CHANNELS 3 Zrotation Yrotation Xrotation
										JOINT left_middle_3
										{
											OFFSET 0.005022 -0.023347 -0.001911
											CHANNELS 3 Zrotation Yrotation Xrotation
											End Site
											{
												OFFSET 0.000000 0.000000 0.000000
											}
										}
									}
								}
								JOINT left_pinky_1
								{
									OFFSET 0.084047 -0.014539 -0.043750
									CHANNELS 3 Zrotation Yrotation Xrotation
									JOINT left_pinky_2
									{
										OFFSET 0.012124 -0.014448 -0.005375
										CHANNELS 3 Zrotation Yrotation Xrotation
										JOINT left_pinky_3
										{
											OFFSET 0.003798 -0.018853 0.000167
											CHANNELS 3 Zrotation Yrotation Xrotation
											End Site
											{
												OFFSET 0.000000 0.000000 0.000000
											}
										}
									}
								}
								JOINT left_ring_1
								{
									OFFSET 0.097444 -0.009268 -0.027345
									CHANNELS 3 Zrotation Yrotation Xrotation
									JOINT left_ring_2
									{
										OFFSET 0.023561 -0.016057 -0.001895
										CHANNELS 3 Zrotation Yrotation Xrotation
										JOINT left_ring_3
										{
											OFFSET 0.004257 -0.023548 0.000814
											CHANNELS 3 Zrotation Yrotation Xrotation
											End Site
											{
												OFFSET 0.000000 0.000000 0.000000
											}
										}
									}
								}
								JOINT left_thumb_1
								{
									OFFSET 0.040636 -0.017977 0.025611
									CHANNELS 3 Zrotation Yrotation Xrotation
									JOINT left_thumb_2
									{
										OFFSET 0.021637 -0.017639 0.011623
										CHANNELS 3 Zrotation Yrotation Xrotation
										JOINT left_thumb_3
										{
											OFFSET 0.024002 -0.008356 0.006548
											CHANNELS 3 Zrotation Yrotation Xrotation
											End Site
											{
												OFFSET 0.000000 0.000000 0.000000
											}
										}
									}
								}
							}
						}
					}
				}
				JOINT right_collar
				{
					OFFSET -0.047695 0.084339 -0.013400
					CHANNELS 3 Zrotation Yrotation Xrotation
					JOINT right_shoulder
					{
						OFFSET -0.102578 0.053524 -0.012669
						CHANNELS 3 Zrotation Yrotation Xrotation
						JOINT right_elbow
						{
							OFFSET -0.271150 -0.036492 -0.026467
							CHANNELS 3 Zrotation Yrotation Xrotation
							JOINT right_wrist
							{
								OFFSET -0.249267 -0.004533 -0.015325
								CHANNELS 3 Zrotation Yrotation Xrotation
								JOINT right_index_1
								{
									OFFSET -0.099881 -0.011783 0.019600
									CHANNELS 3 Zrotation Yrotation Xrotation
									JOINT right_index_2
									{
										OFFSET -0.030148 -0.011154 0.001151
										CHANNELS 3 Zrotation Yrotation Xrotation
										JOINT right_index_3
										{
											OFFSET -0.006505 -0.021577 -0.002432
											CHANNELS 3 Zrotation Yrotation Xrotation
											End Site
											{
												OFFSET 0.000000 0.000000 0.000000
											}
										}
									}
								}
								JOINT right_middle_1
								{
									OFFSET -0.107376 -0.009422 -0.003734
									CHANNELS 3 Zrotation Yrotation Xrotation
									JOINT right_middle_2
									{
										OFFSET -0.026472 -0.015218 -0.004641
										CHANNELS 3 Zrotation Yrotation Xrotation
										JOINT right_middle_3
										{
											OFFSET -0.005022 -0.023347 -0.001911
											CHANNELS 3 Zrotation Yrotation Xrotation
											End Site
											{
												OFFSET 0.000000 0.000000 0.000000
											}
										}
									}
								}
								JOINT right_pinky_1
								{
									OFFSET -0.082027 -0.017634 -0.043503
									CHANNELS 3 Zrotation Yrotation Xrotation
									JOINT right_pinky_2
									{
										OFFSET -0.012123 -0.014448 -0.005374
										CHANNELS 3 Zrotation Yrotation Xrotation
										JOINT right_pinky_3
										{
											OFFSET -0.003798 -0.018852 0.000167
											CHANNELS 3 Zrotation Yrotation Xrotation
											End Site
											{
												OFFSET 0.000000 0.000000 0.000000
											}
										}
									}
								}
								JOINT right_ring_1
								{
									OFFSET -0.095423 -0.012362 -0.027099
									CHANNELS 3 Zrotation Yrotation Xrotation
									JOINT right_ring_2
									{
										OFFSET -0.023561 -0.016057 -0.001895
										CHANNELS 3 Zrotation Yrotation Xrotation
										JOINT right_ring_3
										{
											OFFSET -0.004257 -0.023548 0.000816
											CHANNELS 3 Zrotation Yrotation Xrotation
											End Site
											{
												OFFSET 0.000000 0.000000 0.000000
											}
										}
									}
								}
								JOINT right_thumb_1
								{
									OFFSET -0.038613 -0.021074 0.025861
									CHANNELS 3 Zrotation Yrotation Xrotation
									JOINT right_thumb_2
									{
										OFFSET -0.021636 -0.017639 0.011623
										CHANNELS 3 Zrotation Yrotation Xrotation
										JOINT right_thumb_3
										{
											OFFSET -0.024004 -0.008353 0.006547
											CHANNELS 3 Zrotation Yrotation Xrotation
											End Site
											{
												OFFSET 0.000000 0.000000 0.000000
											}
										}
									}
								}
							}
						}
					}
				}
			}
		}
	}
}
MOTION
Frames: 5
Frame Time: 0.050000
0.043369 0.940940 -0.031090 -1.129446 1.065829 -4.942463 3.533371 0.297384 3.226275 -6.631657 -0.073451 11.286026 8.622239 9.868378 -11.987328 0.000000 0.000000 0.000000 -5.784945 0.077483 1.684518 10.634617 -0.824511 4.489235 -0.033374 -0.962168 1.399079 0.000000 0.000000 0.000000 -5.516778 -0.368496 2.407702 -4.414098 -0.239422 -10.544447 11.173221 -1.743541 22.418189 4.965966 0.611779 -7.638824 0.000000 0.000000 0.000000 -7.266605 0.083704 -0.772405 -41.803124 -1.107188 -7.308225 -7.306720 -28.797572 4.753636 1.982760 -0.121760 4.387427 -10.477592 2.497309 0.993187 34.177579 -3.880825 1.313378 0.000000 0.000000 0.000000 -1.456838 -3.881052 -2.420998 17.452967 -1.502883 1.451882 0.000000 0.000000 0.000000 22.097065 -10.037193 -4.506199 4.885780 0.176031 1.050496 0.000000 0.000000 0.000000 3.589667 -1.075816 -0.444289 10.228066 -0.367703 -7.901013 0.000000 0.000000 0.000000 21.412389 23.539330 17.255283 -19.064447 -11.223649 3.016289 0.000000 0.000000 0.000000 7.504016 -0.266779 -1.032537 42.468922 8.932380 -3.122981 13.108625 17.672810 0.928990 7.543827 -1.576470 8.699394 17.406543 -5.886036 1.667991 -14.483885 -3.435953 23.312055 0.000000 0.000000 0.000000 16.061349 -4.067490 -1.346108 1.221185 -2.143312 7.921377 0.000000 0.000000 0.000000 -4.596637 5.379708 -3.857789 24.466572 -3.412070 7.382942 0.000000 0.000000 0.000000 14.289739 -5.022935 0.941726 15.638294 -0.948837 2.563540 0.000000 0.000000 0.000000 -18.851016 -31.828216 31.831378 9.576735 18.296811 -1.945496 0.000000 0.000000 0.000000 
0.044783 0.951416 -0.011292 1.081007 3.431164 -5.016724 1.823769 -0.239588 -1.535007 -4.363301 -0.626956 12.426114 5.166956 11.351662 2.414351 0.000000 0.000000 0.000000 -5.250005 0.304336 -2.158063 5.602987 -0.566357 14.164840 -1.296650 -3.559206 1.686985 0.000000 0.000000 0.000000 -10.518901 -0.515810 5.119169 -4.916055 -0.786968 -14.089561 13.217818 -0.813034 25.268363 5.869528 1.014956 -10.127889 0.000000 0.000000 0.000000 -7.207360 2.492133 -2.329110 -38.415173 -10.430055 -6.691495 -13.932671 -24.115005 5.265194 -5.746900 -1.288653 14.740480 -33.970464 15.143533 1.342375 -21.114860 4.949447 0.322324 0.000000 0.000000 0.000000 -38.301897 9.107070 -6.124294 -22.469642 -0.987934 -10.685269 0.000000 0.000000 0.000000 -45.758319 -23.681032 -32.258127 2.821958 1.732184 20.422248 0.000000 0.000000 0.000000 -47.059729 -7.335962 -7.977092 -15.521989 -1.036757 -4.930367 0.000000 0.000000 0.000000 -10.856886 30.719191 30.061212 32.639367 -3.678449 -14.590870 0.000000 0.000000 0.000000 11.393839 0.052639 -0.929894 39.699868 12.547027 -2.117154 16.356368 15.174884 0.967810 12.178686 -3.513763 9.962086 23.633102 -16.372921 3.785809 4.908834 -12.072474 21.756737 0.000000 0.000000 0.000000 30.941114 -7.966175 -3.533201 15.422533 -1.614977 -1.935291 0.000000 0.000000 0.000000 10.197021 13.109068 -17.708867 16.676243 -2.960225 10.994153 0.000000 0.000000 0.000000 30.051178 2.655052 -4.336845 19.446125 -1.967565 5.328440 0.000000 0.000000 0.000000 -29.709893 -44.185883 57.392394 -3.816350 29.771814 -11.973562 0.000000 0.000000 0.000000 
0.048552 0.943841 0.007187 2.542510 2.295063 -4.070367 1.668242 -0.282888 -1.881584 -3.404206 -0.698738 11.571648 1.025234 5.737250 5.077509 0.000000 0.000000 0.000000 -5.062700 0.398120 -3.148579 2.096523 0.139123 16.290205 -2.205898 -3.266605 -2.143967 0.000000 0.000000 0.000000 -8.364155 -0.429302 10.448882 -6.535258 -1.015032 -17.320436 10.525985 -0.294394 26.923726 5.140367 1.407839 -12.036034 0.000000 0.000000 0.000000 -5.954975 -2.390589 0.602929 -41.881845 -13.894555 -6.809574 -10.102977 -23.235566 4.303993 -11.664618 -1.322763 15.888436 -159.828544 66.353372 -75.221810 46.045347 -32.599317 -118.456400 0.000000 0.000000 0.000000 -105.444361 49.423906 -36.824290 7.494766 -19.074057 -60.550263 0.000000 0.000000 0.000000 -110.159530 25.396299 -39.430048 15.135546 -2.100778 -25.440703 0.000000 0.000000 0.000000 -112.338764 24.762848 -26.004259 25.111924 0.593831 -57.249235 0.000000 0.000000 0.000000 -67.457339 48.098993 28.701671 110.686558 27.666496 8.876051 0.000000 0.000000 0.000000 8.899846 0.684175 -0.286529 47.100486 15.519703 -1.349996 14.600446 16.543607 1.044456 9.068284 2.249033 9.569660 29.577687 -28.172880 5.012306 30.879104 -21.977707 17.886764 0.000000 0.000000 0.000000 41.822909 -10.783121 -5.342975 50.625883 -4.037861 -5.291311 0.000000 0.000000 0.000000 24.779882 34.292679 -38.475634 46.120165 -1.740537 7.110043 0.000000 0.000000 0.000000 47.088610 11.776689 -7.127420 42.488521 8.992516 -15.337424 0.000000 0.000000 0.000000 -32.885993 -48.383590 68.286269 -22.149218 34.569408 -25.049558 0.000000 0.000000 0.000000 
0.044312 0.941101 -0.006012 1.603917 1.282349 -1.482536 3.522151 -0.093547 -0.050886 -2.903019 -0.041235 3.137776 -1.090621 0.560336 3.329563 0.000000 0.000000 0.000000 -3.318660 0.241311 -1.184659 1.136880 0.100881 5.983158 -1.581862 -2.134445 -1.812191 0.000000 0.000000 0.000000 -3.101064 -0.400866 5.935493 -6.953938 -0.743128 -16.674166 7.535728 -0.875906 26.725011 5.546839 0.838441 -9.332260 0.000000 0.000000 0.000000 -9.176975 -1.062727 -0.370078 -43.250871 -13.697205 -6.741542 -5.833023 -18.684900 2.758862 -10.504511 -5.254069 14.856650 -32.652402 28.602153 5.501263 -51.880337 6.814694 -8.303948 0.000000 0.000000 0.000000 -49.436072 29.383945 -6.318785 -44.187668 -9.278133 -22.735064 0.000000 0.000000 0.000000 -83.727904 15.568300 -33.895674 14.835707 0.589175 -27.790970 0.000000 0.000000 0.000000 -71.161097 15.629043 -12.018393 -10.321778 -9.158866 -36.260035 0.000000 0.000000 0.000000 -16.045974 18.664106 20.946837 49.368436 8.166346 -14.449681 0.000000 0.000000 0.000000 8.731672 3.696063 1.450590 49.437057 12.908486 -2.247465 12.539846 20.154595 1.198727 0.798541 4.329879 8.062709 24.886682 -4.235058 1.193175 21.470706 -12.383686 14.657010 0.000000 0.000000 0.000000 31.201737 -0.326014 -5.330338 31.215295 1.041268 -9.829765 0.000000 0.000000 0.000000 26.238133 19.582046 -23.330311 43.070945 7.918548 -13.787681 0.000000 0.000000 0.000000 33.465053 10.433854 -6.132732 37.644531 3.519077 -6.824803 0.000000 0.000000 0.000000 -8.764511 -34.228317 34.504633 -8.833322 21.191550 -11.242458 0.000000 0.000000 0.000000 
0.045725 0.931592 -0.002052 0.001734 0.952052 -3.332810 5.193698 0.019920 1.327932 -2.360876 -0.248996 4.900645 0.076755 -0.601020 -0.902454 0.000000 0.000000 0.000000 -2.499109 0.011807 0.831958 2.631254 -0.046649 6.527330 -2.336986 -1.709671 -5.039905 0.000000 0.000000 0.000000 -1.298788 -0.434890 6.257794 -7.562441 -0.875653 -17.960510 7.866127 -0.980608 28.006949 5.279627 0.965409 -9.865107 0.000000 0.000000 0.000000 -6.870691 -1.354962 0.066626 -51.642678 -10.157002 -7.732962 -2.551194 -22.979830 2.868964 -0.926689 -2.734390 9.333962 -21.254384 10.653928 2.418572 -5.468988 6.860661 13.854318 0.000000 0.000000 0.000000 -20.278413 1.672070 -3.114674 -19.986976 2.570048 -0.124972 0.000000 0.000000 0.000000 -3.611260 -12.188216 -13.370906 -27.365944 -10.407842 -31.264398 0.000000 0.000000 0.000000 -18.741915 -1.280269 -2.481929 -32.758916 -5.890747 -14.634131 0.000000 0.000000 0.000000 7.848944 30.985806 30.705916 5.702551 -17.595922 -8.249308 0.000000 0.000000 0.000000 10.536404 2.901407 0.782920 50.363080 9.894639 -3.283961 9.868823 22.048046 1.025465 -0.413992 3.579247 12.847892 22.445388 2.164779 -0.335661 15.864732 -9.309910 11.446955 0.000000 0.000000 0.000000 24.623549 6.808952 -6.831065 29.247683 0.396871 -9.979119 0.000000 0.000000 0.000000 9.443881 22.631496 -21.480265 46.137001 12.351298 -23.432163 0.000000 0.000000 0.000000 25.443879 11.116160 -6.586766 32.782587 8.109195 -22.821443 0.000000 0.000000 0.000000 -6.100980 -27.423743 26.725150 -2.432181 17.330698 -6.605360 0.000000 0.000000 0.000000 
